<svg xmlns="http://www.w3.org/2000/svg" xmlns:svgjs="http://svgjs.com/svgjs" xmlns:xlink="http://www.w3.org/1999/xlink" width="288" height="288"><svg xmlns="http://www.w3.org/2000/svg" width="288" height="288" data-name="Layer 1" viewBox="0 0 128 128"><defs><radialGradient id="a" cx="27.5" cy="121.5" r="148.5" gradientUnits="userSpaceOnUse"><stop class="stopColorffd676 svgShape" offset="0" stop-color="#b4bdc1"/><stop class="stopColorf2a454 svgShape" offset=".25" stop-color="#9aa6ac"/><stop class="stopColorf05c3c svgShape" offset=".38" stop-color="#8b99a0"/><stop class="stopColorc22f86 svgShape" offset=".7" stop-color="#6c7d85"/><stop class="stopColor6666ad svgShape" offset=".96" stop-color="#7e8d95"/><stop class="stopColor5c6cb2 svgShape" offset=".99" stop-color="#7b8b93"/></radialGradient><radialGradient id="d" cx="13.87" cy="303.38" r="185.63" xlink:href="#a"/><clipPath id="b"><rect width="128" height="128" fill="none" rx="24" ry="24"/></clipPath><clipPath id="c"><circle cx="82" cy="209" r="5" fill="none"/></clipPath></defs><g class="color000 svgShape" clip-path="url(#b)"><circle cx="27.5" cy="121.5" r="148.5" fill="url(#a)"/></g><g class="color000 svgShape" clip-path="url(#c)"><circle cx="13.87" cy="303.38" r="185.63" fill="url(#d)"/></g><circle cx="82" cy="46" r="5" fill="#fff" class="colorfff svgShape"/><path fill="#fff" d="M64 48a16 16 0 1 0 16 16 16 16 0 0 0-16-16Zm0 24a8 8 0 1 1 8-8 8 8 0 0 1-8 8Z" class="colorfff svgShape"/><rect width="64" height="64" x="32" y="32" fill="none" stroke="#fff" stroke-miterlimit="10" stroke-width="8" class="colorStrokefff svgStroke" rx="12" ry="12"/></svg></svg>